<?xml version="1.0" encoding="utf-8"?>
<!-- Generator: Adobe Illustrator 22.0.1, SVG Export Plug-In . SVG Version: 6.00 Build 0)  -->
<svg version="1.1" xmlns="http://www.w3.org/2000/svg" xmlns:xlink="http://www.w3.org/1999/xlink" x="0px" y="0px"
	 viewBox="0 0 80 80" style="enable-background:new 0 0 80 80;" xml:space="preserve">
<style type="text/css">
	.st0{fill:#FFFFFF;}
</style>
<g id="Livello_1">
</g>
<g id="Livello_2">
	<g>
		<path d="M39.9,1.5C18.6,1.5,1.4,18.8,1.4,40.1s17.3,38.6,38.6,38.6s38.6-17.3,38.6-38.6S61.2,1.5,39.9,1.5z M62.4,61.7L40,39.3
			L17.6,61.7L16.9,61l22.4-22.4L17,16.3l0.8-0.8L40,37.8l22.3-22.3l0.8,0.8L40.8,38.6l22.3,22.3L62.4,61.7z"/>
		<polygon class="st0" points="63,16.3 62.3,15.5 40,37.8 17.8,15.6 17,16.3 39.3,38.6 16.9,61 17.6,61.7 40,39.3 62.4,61.7 
			63.1,60.9 40.8,38.6 		"/>
	</g>
</g>
</svg>
