<?xml version="1.0" encoding="utf-8"?>
<!-- Generator: Adobe Illustrator 22.0.1, SVG Export Plug-In . SVG Version: 6.00 Build 0)  -->
<svg version="1.1" id="Livello_1" xmlns="http://www.w3.org/2000/svg" xmlns:xlink="http://www.w3.org/1999/xlink" x="0px" y="0px"
	 viewBox="0 0 68.2 56.5" style="enable-background:new 0 0 68.2 56.5;" xml:space="preserve">
<style type="text/css">
	.st0{fill:#FFFFFF;}
</style>
<g>
	<g>
		<path class="st0" d="M3.1,46.6c3.9,0.3,7.2-1.1,10.2-3.4c0.4-0.3,0.7-0.5,1-0.8c1.3-1.1,2.6-2.3,3.9-3.5c2.1-1.9,4.3-3.5,7-4.5
			c1.1-0.4,2.1-0.8,3.3-0.8c1.6-0.1,3,0.3,4.2,1.3c1.2,1,2.5,1.2,4,0.8c3.1-0.7,5.9-2.1,8.4-4.2c1.1-0.9,2.1-1.9,3.1-2.8
			c2.4-2.3,5.1-4,8.1-5.2c1-0.4,2-0.7,3-0.7c1.2,0,2.2,0.3,3.2,0.9c1.2,0.8,2.8,2.5,3.7,3.8c-0.5,0-0.9,0.1-1.4,0.1
			c-3.3,0.3-6.2,1.6-8.8,3.6c-1.2,0.9-2.3,1.9-3.4,2.9c-1.5,1.4-3.1,2.8-4.9,3.9c-1.8,1.1-3.7,2-5.7,2.5c-1.9,0.4-3.6,0.2-5.2-1
			c-1.3-1-2.7-1.2-4.3-0.9c-3,0.7-5.6,2-7.9,3.9c-0.9,0.8-1.8,1.6-2.7,2.4c-2.4,2.3-5,4.2-8,5.6c-1.2,0.5-2.4,1-3.8,1
			c-0.9,0-1.7-0.2-2.5-0.6C5.7,50,4.4,48.3,3.1,46.6z"/>
	</g>
	<g>
		<path class="st0" d="M56.8,18.1c-0.6,0-1.1,0-1.6,0c-2.3,0-4.5,0.8-6.5,1.9c-1.5,0.8-2.8,1.9-4.1,3c-1.3,1.1-2.6,2.3-3.9,3.5
			C38.9,28,37,29.3,34.8,30c-0.6,0.2-1.2,0.5-1.8,0.8c-2.1,0.7-4,0.4-5.8-1c-1.1-0.9-2.4-1.1-3.8-0.9c-3.4,0.6-6.3,2.2-8.9,4.4
			c-0.4,0.3-0.8,0.7-1.2,1.1c-0.8,0.7-1.4,0.7-2.2,0c-0.9-0.9-1.8-1.8-2.7-2.8c-0.2-0.2-0.3-0.4-0.4-0.6c-0.2-0.5-0.2-1,0.1-1.4
			c0.2-0.3,0.5-0.5,0.7-0.7c1.7-1.3,3.5-2.6,5.4-3.5c1.8-0.9,3.8-1.3,5.8-1.3c0.6,0,1,0.2,1.5,0.5c2.2,1.8,4.7,2.1,7.4,1.1
			c1.2-0.5,2.3-1.1,3.5-1.7c1.4-0.7,2.6-1.7,3.8-2.8c1.3-1.2,2.7-2.5,4.1-3.6c1.8-1.5,3.8-2.6,5.9-3.6c0.9-0.4,1.9-0.7,2.9-0.8
			c1.4-0.1,2.7,0.3,3.9,1.1C54.5,15.3,55.6,16.6,56.8,18.1z"/>
	</g>
	<g>
		<path class="st0" d="M46.8,8.3c-2.7,0-5.2,0.6-7.5,1.9c-1.4,0.7-2.6,1.6-3.8,2.6c-1.1,1-2.2,2-3.3,3c-2.4,2.2-5.1,3.9-8.2,5
			c-0.8,0.3-1.7,0.5-2.6,0.6c-1.1,0.1-2.2-0.2-3.1-0.8c-1.1-0.7-3-2.7-3.8-3.9c0.5,0,0.9-0.1,1.4-0.1c2.9-0.2,5.5-1.2,8-2.9
			c1.7-1.1,3.2-2.5,4.6-3.9c1.9-1.8,4-3.5,6.3-4.7c1.4-0.7,2.7-1.3,4.3-1.6c1.1-0.2,2.3-0.1,3.3,0.4C44.3,5,45.5,6.6,46.8,8.3z"/>
	</g>
</g>
</svg>
