<?xml version="1.0" encoding="utf-8"?>
<!-- Generator: Adobe Illustrator 22.0.1, SVG Export Plug-In . SVG Version: 6.00 Build 0)  -->
<svg version="1.1" xmlns="http://www.w3.org/2000/svg" xmlns:xlink="http://www.w3.org/1999/xlink" x="0px" y="0px"
	 viewBox="0 0 1200 466" style="enable-background:new 0 0 1200 466;" xml:space="preserve">
<g id="Livello_1">
	<g>
		<path d="M115.3,420.2c0-4.8,3-7.9,7.9-7.9c0,0,13.2,0.1,13.2,0c0,0,0.1-3.9,0-4c0-3.6-1.9-4.9-4.9-4.9c-4.3,0-9.4,0.3-15.2,0.7
			v-3.2c4.2-1.2,9.5-1.7,15.4-1.8c4.9-0.1,9.1,2.6,9.1,9.2v23h-3.3l-1.1-3.8c-0.1,0-7.8,4.2-13.2,4.2c-4.3,0-7.9-2.8-7.9-7.8V420.2z
			 M123.2,427.3c4.8,0,13.2-3,13.2-3v-8.5l-13.2,1c-2.6,0.2-3.5,2-3.5,3.9v3C119.7,426.4,121.2,427.3,123.2,427.3z"/>
		<path d="M146.2,407.3c0-4.9,2.1-7.8,8.2-7.8c3.1,0,12.4,0.7,15.5,1v3.4h-15.5c-3.8,0-3.8,1.5-3.8,3.5v2.7c0,3.3,1.6,3.4,3.8,3.4
			h9.4c5.2,0,7.7,3.2,7.7,7.7v2.9c0,6.5-3.9,7.6-7.7,7.6c-2.9,0-14-0.9-16.3-1.1v-3.3h16.3c0,0,3.3,0.4,3.3-3.2v-2.9
			c0-2.1-0.7-3.3-3.3-3.3h-9.4c-5.6,0-8.2-1.7-8.2-7.8V407.3z"/>
		<path d="M173.9,400.8l5.9-1.1l1.1-8.8h3.3v8.8h9.2v4.4h-9.2V420c0,5.2,1.4,6.4,3.4,6.8c0,0,4.9,1.2,5.3,1.2v3.1h-5.2
			c-4.6,0-7.8-2.9-7.8-11.2v-15.9h-5.9V400.8z"/>
		<path d="M211.9,399.5c7.4,0,12.1,0.7,12.1,11.2c0,4.6-2.4,7.2-8.1,7.2h-13.3c0,7.4,1.4,9.3,6,9.3c5.5,0,10.4,0.1,14.9-0.6v3.3
			c-4.8,1.4-9.9,1.7-14.9,1.7c-8,0-10.4-3.9-10.4-16.2C198.1,401.3,202.1,399.5,211.9,399.5z M215.8,413.6c2.6,0,3.7-1,3.7-2.9
			c0-6.2-1.2-6.8-7.6-6.8c-6.7,0-9.4,0.1-9.4,9.7H215.8z"/>
		<path d="M242.4,411.9H261v4.4h-18.7V411.9z"/>
		<path d="M280.6,399.8h3.1l1.1,3.5c1.5-1.1,7.7-3.9,11.7-3.9c8.6,0,10.4,8.7,10.4,16c0,8.1-1.4,16.4-10.4,16.4
			c-2.7,0-7.9-0.8-11.7-2.4v17.9h-4.3V399.8z M296.6,427.4c3.8,0,6-2.3,6-12c0-7.7-2.1-11.6-6-11.6c-4.7,0-8.5,1.4-11.7,2.7v19.3
			C289,426.9,292,427.4,296.6,427.4z"/>
		<path d="M326.2,399.5c7.4,0,12.1,0.7,12.1,11.2c0,4.6-2.4,7.2-8.1,7.2h-13.3c0,7.4,1.4,9.3,6,9.3c5.5,0,10.4,0.1,14.9-0.6v3.3
			c-4.8,1.4-9.9,1.7-14.9,1.7c-8,0-10.4-3.9-10.4-16.2C312.4,401.3,316.4,399.5,326.2,399.5z M330.1,413.6c2.6,0,3.7-1,3.7-2.9
			c0-6.2-1.2-6.8-7.6-6.8c-6.7,0-9.4,0.1-9.4,9.7H330.1z"/>
		<path d="M344.2,399.8h3.1l1.3,3.7c3.6-2.1,6.8-4.2,11.6-4.2c6.3,0,9.7,4.9,9.7,10.1v22h-4.4v-22c0-3.9-2.3-5.7-5.3-5.7
			c-4.8,0-7.1,1.2-11.6,3.4v24.3h-4.4V399.8z"/>
		<path d="M376.5,399.8h3.1l1.3,3.7c3.6-2.1,6.8-4.2,11.6-4.2c6.3,0,9.7,4.9,9.7,10.1v22h-4.4v-22c0-3.9-2.3-5.7-5.3-5.7
			c-4.8,0-7.1,1.2-11.6,3.4v24.3h-4.4V399.8z"/>
		<path d="M421.5,399.5c10.6,0,13.9,4,13.9,16.5c0,11.7-3.3,15.6-13.9,15.6s-13.9-4.3-13.9-15.6
			C407.6,403.1,411.2,399.5,421.5,399.5z M421.5,427.2c6.4,0,9.5-0.8,9.5-11.2c0-11.3-2.6-12.1-9.5-12.1c-6.7,0-9.5,0.8-9.5,12.1
			C412,426.5,415.4,427.2,421.5,427.2z"/>
		<path d="M442,399.8h3.1l1.3,3.7c3.6-2.1,6.8-4.2,11.6-4.2c6.3,0,9.7,4.9,9.7,10.1v22h-4.4v-22c0-3.9-2.3-5.7-5.3-5.7
			c-4.8,0-7.1,1.2-11.6,3.4v24.3H442V399.8z"/>
		<path d="M473.7,391.4c0-0.9,0.5-1.5,1.4-1.5h3c0.9,0,1.4,0.7,1.4,1.5v3.2c0,0.9-0.5,1.4-1.4,1.4h-3c-0.8,0-1.4-0.5-1.4-1.4V391.4z
			 M474.3,399.8h4.4v31.6h-4.4V399.8z"/>
		<path d="M498.5,411.9h18.7v4.4h-18.7V411.9z"/>
		<path d="M535.5,420.2c0-4.8,3-7.9,7.9-7.9c0,0,13.2,0.1,13.2,0c0,0,0.1-3.9,0-4c0-3.6-1.9-4.9-4.9-4.9c-4.3,0-9.4,0.3-15.2,0.7
			v-3.2c4.2-1.2,9.5-1.7,15.4-1.8c4.9-0.1,9.1,2.6,9.1,9.2v23h-3.3l-1.1-3.8c-0.1,0-7.8,4.2-13.2,4.2c-4.3,0-7.9-2.8-7.9-7.8V420.2z
			 M543.4,427.3c4.8,0,13.2-3,13.2-3v-8.5l-13.2,1c-2.6,0.2-3.5,2-3.5,3.9v3C539.9,426.4,541.4,427.3,543.4,427.3z"/>
		<path d="M577.4,399.5c3.1,0,9.4,0.8,13.5,1.5v3.2c0,0-8.3-0.4-13.5-0.4c-3.6,0-6,0.7-6,11.9c0,9.1,1.7,11.5,6,11.5
			c5.5,0,14-0.7,14-0.7v3.3c-4.8,1.4-9,1.7-14,1.7c-5.9,0-10.4-2.3-10.4-16.1C567,401.7,571.3,399.5,577.4,399.5z"/>
		<path d="M605.9,399.5c3.1,0,9.4,0.8,13.5,1.5v3.2c0,0-8.3-0.4-13.5-0.4c-3.6,0-6,0.7-6,11.9c0,9.1,1.7,11.5,6,11.5
			c5.5,0,14-0.7,14-0.7v3.3c-4.8,1.4-9,1.7-14,1.7c-5.9,0-10.4-2.3-10.4-16.1C595.5,401.7,599.8,399.5,605.9,399.5z"/>
		<path d="M637.8,399.5c7.4,0,12.1,0.7,12.1,11.2c0,4.6-2.4,7.2-8.1,7.2h-13.3c0,7.4,1.4,9.3,6,9.3c5.5,0,10.4,0.1,14.9-0.6v3.3
			c-4.8,1.4-9.9,1.7-14.9,1.7c-8,0-10.4-3.9-10.4-16.2C624,401.3,628.1,399.5,637.8,399.5z M641.7,413.6c2.6,0,3.7-1,3.7-2.9
			c0-6.2-1.2-6.8-7.6-6.8c-6.7,0-9.4,0.1-9.4,9.7H641.7z"/>
		<path d="M654.6,407.3c0-4.9,2.1-7.8,8.2-7.8c3.1,0,12.4,0.7,15.5,1v3.4h-15.5c-3.8,0-3.8,1.5-3.8,3.5v2.7c0,3.3,1.6,3.4,3.8,3.4
			h9.4c5.2,0,7.7,3.2,7.7,7.7v2.9c0,6.5-3.9,7.6-7.7,7.6c-2.9,0-14-0.9-16.3-1.1v-3.3h16.3c0,0,3.3,0.4,3.3-3.2v-2.9
			c0-2.1-0.7-3.3-3.3-3.3h-9.4c-5.6,0-8.2-1.7-8.2-7.8V407.3z"/>
		<path d="M684.1,407.3c0-4.9,2.1-7.8,8.2-7.8c3.1,0,12.4,0.7,15.5,1v3.4h-15.5c-3.8,0-3.8,1.5-3.8,3.5v2.7c0,3.3,1.6,3.4,3.8,3.4
			h9.4c5.2,0,7.7,3.2,7.7,7.7v2.9c0,6.5-3.9,7.6-7.7,7.6c-2.9,0-14-0.9-16.3-1.1v-3.3h16.3c0,0,3.3,0.4,3.3-3.2v-2.9
			c0-2.1-0.7-3.3-3.3-3.3h-9.4c-5.6,0-8.2-1.7-8.2-7.8V407.3z"/>
		<path d="M728.7,399.5c10.6,0,13.9,4,13.9,16.5c0,11.7-3.3,15.6-13.9,15.6s-13.9-4.3-13.9-15.6
			C714.8,403.1,718.3,399.5,728.7,399.5z M728.7,427.2c6.4,0,9.5-0.8,9.5-11.2c0-11.3-2.6-12.1-9.5-12.1c-6.7,0-9.5,0.8-9.5,12.1
			C719.2,426.5,722.5,427.2,728.7,427.2z"/>
		<path d="M749.1,399.8h3.1l1.3,4c3.6-2.1,6.9-4.3,11.8-4.3c1.7,0,3.7,0.1,4.4,0.5v4.3c-0.7-0.2-2.7-0.4-4.4-0.4
			c-4.8,0-7.2,1.2-11.8,3.4v24h-4.4V399.8z"/>
		<path d="M773.8,391.4c0-0.9,0.5-1.5,1.4-1.5h3c0.9,0,1.4,0.7,1.4,1.5v3.2c0,0.9-0.5,1.4-1.4,1.4h-3c-0.8,0-1.4-0.5-1.4-1.4V391.4z
			 M774.4,399.8h4.4v31.6h-4.4V399.8z"/>
		<path d="M801,399.8h3.1l1.1,3.5c1.5-1.1,7.7-3.9,11.7-3.9c8.6,0,10.4,8.7,10.4,16c0,8.1-1.4,16.4-10.4,16.4
			c-2.7,0-7.9-0.8-11.7-2.4v17.9H801V399.8z M817,427.4c3.8,0,6-2.3,6-12c0-7.7-2.1-11.6-6-11.6c-4.7,0-8.5,1.4-11.7,2.7v19.3
			C809.4,426.9,812.4,427.4,817,427.4z"/>
		<path d="M846.5,399.5c7.4,0,12.1,0.7,12.1,11.2c0,4.6-2.4,7.2-8.1,7.2h-13.3c0,7.4,1.4,9.3,6,9.3c5.5,0,10.4,0.1,14.9-0.6v3.3
			c-4.8,1.4-9.9,1.7-14.9,1.7c-8,0-10.4-3.9-10.4-16.2C832.7,401.3,836.7,399.5,846.5,399.5z M850.4,413.6c2.6,0,3.7-1,3.7-2.9
			c0-6.2-1.2-6.8-7.6-6.8c-6.7,0-9.4,0.1-9.4,9.7H850.4z"/>
		<path d="M864.5,399.8h3.1l1.3,4c3.6-2.1,6.9-4.3,11.8-4.3c1.7,0,3.7,0.1,4.4,0.5v4.3c-0.7-0.2-2.7-0.4-4.4-0.4
			c-4.8,0-7.2,1.2-11.8,3.4v24h-4.4V399.8z"/>
		<path d="M904.7,384.7h4.3v17c3.8-1.5,9-2.4,11.7-2.4c9,0,10.4,8.3,10.4,16.4c0,7.2-1.8,16-10.4,16c-4,0-10.1-2.7-11.6-3.9
			l-1.2,3.5h-3.2V384.7z M920.6,427.3c3.9,0,6-3.9,6-11.6c0-9.7-2.2-12-6-12c-4.6,0-7.5,0.5-11.6,1.5v19.3
			C912.2,425.8,915.9,427.3,920.6,427.3z"/>
		<path d="M936.4,420.2c0-4.8,3-7.9,7.9-7.9c0,0,13.2,0.1,13.2,0c0,0,0.1-3.9,0-4c0-3.6-1.9-4.9-4.9-4.9c-4.3,0-9.4,0.3-15.2,0.7
			v-3.2c4.2-1.2,9.5-1.7,15.4-1.8c4.9-0.1,9.1,2.6,9.1,9.2v23h-3.3l-1.1-3.8c-0.1,0-7.8,4.2-13.2,4.2c-4.3,0-7.9-2.8-7.9-7.8V420.2z
			 M944.3,427.3c4.8,0,13.2-3,13.2-3v-8.5l-13.2,1c-2.6,0.2-3.5,2-3.5,3.9v3C940.8,426.4,942.3,427.3,944.3,427.3z"/>
		<path d="M968.4,399.8h3.1l1.3,3.7c3.6-2.1,6.8-4.2,11.6-4.2c6.3,0,9.7,4.9,9.7,10.1v22h-4.4v-22c0-3.9-2.3-5.7-5.3-5.7
			c-4.8,0-7.1,1.2-11.6,3.4v24.3h-4.4V399.8z"/>
		<path d="M1010,399.3c2.7,0,7.8,0.8,11.6,2.4v-17h4.3v46.6h-3.1l-1.2-3.5c-1.5,1.1-7.6,3.9-11.6,3.9c-8.6,0-10.4-8.7-10.4-16
			C999.6,407.6,1001,399.3,1010,399.3z M1010,427.3c4.7,0,8.4-1.4,11.6-2.7v-19.3c-4.1-1.1-7.1-1.5-11.6-1.5c-3.8,0-6,2.3-6,12
			C1003.9,423.4,1006.1,427.3,1010,427.3z"/>
		<path d="M1032.5,391.4c0-0.9,0.5-1.5,1.4-1.5h3c0.9,0,1.4,0.7,1.4,1.5v3.2c0,0.9-0.5,1.4-1.4,1.4h-3c-0.8,0-1.4-0.5-1.4-1.4V391.4
			z M1033.1,399.8h4.4v31.6h-4.4V399.8z"/>
		<path d="M1058,399.5c7.4,0,12.1,0.7,12.1,11.2c0,4.6-2.4,7.2-8.1,7.2h-13.3c0,7.4,1.4,9.3,6,9.3c5.5,0,10.4,0.1,14.9-0.6v3.3
			c-4.8,1.4-9.9,1.7-14.9,1.7c-8,0-10.4-3.9-10.4-16.2C1044.2,401.3,1048.2,399.5,1058,399.5z M1061.9,413.6c2.6,0,3.7-1,3.7-2.9
			c0-6.2-1.2-6.8-7.6-6.8c-6.7,0-9.4,0.1-9.4,9.7H1061.9z"/>
		<path d="M1076,399.8h3.1l1.3,4c3.6-2.1,6.9-4.3,11.8-4.3c1.7,0,3.7,0.1,4.4,0.5v4.3c-0.7-0.2-2.7-0.4-4.4-0.4
			c-4.8,0-7.2,1.2-11.8,3.4v24h-4.4V399.8z"/>
		<path d="M1113.3,399.5c7.4,0,12.1,0.7,12.1,11.2c0,4.6-2.4,7.2-8.1,7.2h-13.3c0,7.4,1.4,9.3,6,9.3c5.5,0,10.4,0.1,14.9-0.6v3.3
			c-4.8,1.4-9.9,1.7-14.9,1.7c-8,0-10.4-3.9-10.4-16.2C1099.5,401.3,1103.5,399.5,1113.3,399.5z M1117.2,413.6c2.6,0,3.7-1,3.7-2.9
			c0-6.2-1.2-6.8-7.6-6.8c-6.7,0-9.4,0.1-9.4,9.7H1117.2z"/>
	</g>
	<g>
		<path d="M606.5,250.2h-30.1v-10.5c0-6.6-0.3-10.8-0.9-12.4c-0.6-1.7-1.9-2.5-4.1-2.5c-1.9,0-3.1,0.7-3.8,2.1c-0.7,1.4-1,5.1-1,11
			v55.5c0,5.2,0.3,8.6,1,10.3c0.7,1.6,2,2.5,4,2.5c2.2,0,3.7-0.9,4.5-2.8c0.8-1.9,1.2-5.5,1.2-10.9v-13.7h-6.1v-17.6h35.2v62.1
			h-18.9l-2.8-8.3c-2.1,3.6-4.6,6.3-7.8,8c-3.1,1.8-6.8,2.7-11.1,2.7c-5.1,0-9.8-1.2-14.2-3.7c-4.4-2.5-7.8-5.5-10.1-9.1
			c-2.3-3.6-3.7-7.4-4.3-11.4c-0.6-4-0.9-9.9-0.9-17.9v-34.4c0-11.1,0.6-19.1,1.8-24.1c1.2-5,4.6-9.6,10.3-13.8
			c5.6-4.2,12.9-6.3,21.9-6.3c8.8,0,16.1,1.8,21.9,5.4c5.8,3.6,9.6,7.9,11.4,12.9c1.8,5,2.6,12.2,2.6,21.7V250.2z"/>
		<path d="M643.1,265.2H616v-6.4c0-7.3,0.8-13,2.5-17c1.7-4,5.1-7.5,10.2-10.5c5.1-3,11.7-4.6,19.9-4.6c9.8,0,17.1,1.7,22.1,5.2
			c5,3.5,7.9,7.7,8.9,12.7c1,5,1.5,15.4,1.5,31.1v47.6h-28.1v-8.5c-1.8,3.4-4,5.9-6.8,7.6c-2.8,1.7-6.1,2.5-10,2.5
			c-5.1,0-9.7-1.4-13.9-4.3c-4.2-2.8-6.3-9-6.3-18.6v-7.8c0-7.1,1.1-11.9,3.4-14.5c2.2-2.6,7.8-5.6,16.7-9
			c9.5-3.7,14.6-6.2,15.2-7.5c0.7-1.3,1-3.9,1-7.9c0-5-0.4-8.2-1.1-9.7c-0.7-1.5-2-2.3-3.7-2.3c-2,0-3.2,0.6-3.6,1.9
			c-0.5,1.3-0.7,4.5-0.7,9.8V265.2z M652.3,278.2c-4.6,3.4-7.3,6.2-8,8.5c-0.7,2.3-1.1,5.6-1.1,9.9c0,4.9,0.3,8.1,1,9.5
			s1.9,2.1,3.8,2.1c1.8,0,3-0.6,3.5-1.7c0.5-1.1,0.8-4.1,0.8-8.8V278.2z"/>
		<path d="M720.8,207.6v115.7h-29.7V207.6H720.8z"/>
		<path d="M760.9,207.6v115.7h-29.7V207.6H760.9z"/>
		<path d="M836.6,261.7V285c0,8.5-0.4,14.8-1.3,18.8c-0.9,4-2.7,7.7-5.5,11.1c-2.8,3.5-6.4,6-10.8,7.6c-4.4,1.6-9.5,2.5-15.2,2.5
			c-6.4,0-11.8-0.7-16.2-2.1c-4.4-1.4-7.9-3.5-10.3-6.4c-2.5-2.8-4.2-6.3-5.3-10.3c-1-4-1.6-10.1-1.6-18.1v-24.3
			c0-8.8,1-15.7,2.9-20.7c1.9-5,5.3-8.9,10.3-11.9c5-3,11.3-4.5,19-4.5c6.5,0,12,1,16.7,2.9c4.6,1.9,8.2,4.4,10.8,7.5
			c2.5,3.1,4.3,6.3,5.2,9.6C836.1,250,836.6,255,836.6,261.7z M807.7,254.6c0-4.9-0.3-7.9-0.8-9.2c-0.5-1.3-1.6-1.9-3.4-1.9
			c-1.7,0-2.9,0.6-3.4,1.9c-0.6,1.3-0.9,4.3-0.9,9.2v42.8c0,4.5,0.3,7.4,0.9,8.8c0.6,1.4,1.7,2,3.4,2c1.7,0,2.8-0.6,3.4-1.9
			c0.5-1.2,0.8-3.9,0.8-8V254.6z"/>
		<path d="M924.8,207.6L942,323.3h-30.8l-1.6-20.8h-10.8l-1.8,20.8h-31.1l15.3-115.7H924.8z M908.8,282c-1.5-13.1-3.1-29.3-4.6-48.6
			c-3.1,22.2-5,38.4-5.8,48.6H908.8z"/>
		<path d="M976,207.6v115.7h-29.7V207.6H976z"/>
		<path d="M1052,207.6v115.7h-28.9v-6.9c-2.8,2.9-5.7,5-8.7,6.4c-3,1.4-6.2,2.1-9.6,2.1c-4.5,0-8.4-1.2-11.7-3.5
			c-3.3-2.4-5.4-5.1-6.3-8.2c-0.9-3.1-1.4-8.1-1.4-15.2v-44.4c0-7.3,0.5-12.5,1.4-15.5c0.9-3,3.1-5.7,6.4-8
			c3.3-2.3,7.3-3.5,11.9-3.5c3.6,0,6.8,0.6,9.8,1.9c3,1.3,5.7,3.2,8.1,5.8v-26.9H1052z M1023.1,252.3c0-3.5-0.3-5.8-0.9-7
			c-0.6-1.2-1.8-1.8-3.5-1.8c-1.7,0-2.9,0.5-3.5,1.6c-0.6,1.1-0.9,3.5-0.9,7.2v46.5c0,3.9,0.3,6.4,0.9,7.6c0.6,1.2,1.7,1.8,3.3,1.8
			c1.9,0,3.1-0.7,3.7-2c0.6-1.4,0.9-4.7,0.9-10V252.3z"/>
		<path d="M1127.7,261.7V285c0,8.5-0.4,14.8-1.3,18.8c-0.9,4-2.7,7.7-5.5,11.1c-2.8,3.5-6.4,6-10.8,7.6c-4.4,1.6-9.5,2.5-15.2,2.5
			c-6.4,0-11.8-0.7-16.2-2.1c-4.4-1.4-7.9-3.5-10.3-6.4c-2.5-2.8-4.2-6.3-5.3-10.3c-1-4-1.6-10.1-1.6-18.1v-24.3
			c0-8.8,1-15.7,2.9-20.7c1.9-5,5.3-8.9,10.3-11.9c5-3,11.3-4.5,19-4.5c6.5,0,12,1,16.7,2.9c4.6,1.9,8.2,4.4,10.8,7.5
			c2.5,3.1,4.3,6.3,5.2,9.6C1127.2,250,1127.7,255,1127.7,261.7z M1098.8,254.6c0-4.9-0.3-7.9-0.8-9.2c-0.5-1.3-1.6-1.9-3.4-1.9
			c-1.7,0-2.9,0.6-3.4,1.9c-0.6,1.3-0.9,4.3-0.9,9.2v42.8c0,4.5,0.3,7.4,0.9,8.8c0.6,1.4,1.7,2,3.4,2c1.7,0,2.8-0.6,3.4-1.9
			c0.5-1.2,0.8-3.9,0.8-8V254.6z"/>
	</g>
	<g>
		<g>
			<path d="M102.3,290.9c23.9,1.9,44-6.7,62.5-20.5c2.2-1.6,4.3-3.2,6.4-5c8-7,15.9-14.1,23.9-21.2c12.7-11.4,26.5-21.1,42.6-27.3
				c6.5-2.5,13-4.6,20-5.1c9.6-0.6,18.4,1.8,25.6,8c7.4,6.4,15.4,7.1,24.4,5.1c19.2-4.1,36-13.1,51-25.5c6.6-5.5,12.9-11.3,19-17.2
				c14.4-13.9,31-24.6,49.6-32c5.9-2.3,11.9-4,18.3-4.2c7.2-0.2,13.6,1.8,19.6,5.6c7.2,4.6,17.3,15,22.4,23.1
				c-3,0.2-5.7,0.4-8.4,0.6c-20.2,1.7-38,9.5-53.9,21.7c-7.1,5.5-13.9,11.5-20.5,17.6c-9.4,8.6-19,17.1-29.7,24
				c-10.8,7-22.3,12.4-34.9,15.1c-11.4,2.5-22.2,1-31.5-6.4c-8-6.3-16.7-7.5-26.3-5.3c-18,4.1-34.1,12.3-48.4,23.9
				c-5.7,4.6-11.2,9.5-16.5,14.7c-14.4,14-30.4,25.8-48.7,34.3c-7.3,3.3-14.7,6-22.9,6.1c-5.4,0.1-10.4-1-15.2-3.4
				C118.6,311.5,110.3,301.4,102.3,290.9z"/>
		</g>
		<g>
			<path d="M1093.6,354.8c-23.4,0.2-46.8,0.4-70.2,0.7c-38.6,0.4-77.1,0.8-115.7,1.1c-24.5,0.2-48.9,0.5-73.4,0.8
				c-35.3,0.4-70.5,0.7-105.8,1c-29.4,0.3-58.8,0.6-88.3,0.9c-45.9,0.5-91.9,1-137.8,1.4c-40.1,0.4-80.2,0.7-120.2,1.1
				c-33.9,0.3-67.8,0.7-101.8,1c-29.4,0.3-58.8,0.6-88.3,0.9c-26.7,0.3-53.4,0.5-80.2,0.8c-1.8,0-3.6,0.2-5.7,0.3
				c-0.5,1.7-1.3,3-3.4,3.8c-2.2,0.8-4.3,2.8-5.8,4.7c-4.1,5.6-8.8,9.8-15.9,10.7c-1.1,0.1-2.1,1-3.2,1.5c-2.2-0.6-4.5-1.3-6.8-1.9
				c-6-1.7-11-4.8-14.2-10.3c-4.1-6.9-10.4-10.6-18-12.4c-4.3-1-6.1-5.4-4.3-9.4c1.2-2.7,3-3.6,5.6-4.2c6.8-1.7,12.5-5.1,16.2-11.3
				c3.8-6.4,9.4-9.9,16.5-11.4c1.6-0.3,3.1-1,4.4-1.4c2.1,0.7,4,1.4,6,1.9c5.1,1.2,9,4.1,12,8.2c2.4,3.3,4.8,6.5,9.1,7.6
				c0.8,0.2,1.2,1.8,2.3,3.4c5,0,10.5,0,16,0c24.2,0.2,48.3,0.3,72.5,0.6c45.9,0.5,91.9,1,137.8,1.4c39.9,0.4,79.9,0.7,119.8,1.1
				c34.1,0.3,68.1,0.7,102.2,1c24.5,0.3,48.9,0.5,73.4,0.8c35.3,0.4,70.5,0.7,105.8,1c29.3,0.3,58.5,0.6,87.8,0.9
				c30.5,0.3,60.9,0.6,91.4,0.9c29.3,0.3,58.5,0.6,87.8,0.9c30.5,0.3,60.9,0.6,91.4,0.9c0.3,0,0.6,0.1,0.9,0.2
				C1093.7,354.3,1093.6,354.6,1093.6,354.8z"/>
		</g>
		<g>
			<path d="M430.2,117c-3.9,0-6.8,0-9.8,0c-14.3,0.3-27.4,4.6-39.7,11.6c-9,5.1-17.3,11.3-25.1,18.1c-8,7-15.9,14.2-23.9,21.2
				c-10.7,9.4-22.1,17.4-36,21.6c-3.8,1.2-7.4,3.3-11.2,4.6c-12.8,4.4-24.7,2.5-35.1-6c-7-5.7-14.7-7-23.2-5.5
				c-20.6,3.8-38.3,13.5-54.1,26.9c-2.5,2.1-4.9,4.5-7.4,6.5c-5,4.1-8.6,4.2-13.2-0.1c-5.6-5.4-10.9-11.2-16.2-16.8
				c-1-1.1-1.8-2.4-2.4-3.8c-1.4-3-1.2-5.9,0.9-8.4c1.3-1.6,2.8-3.2,4.4-4.5c10.5-8,21.3-15.6,33.1-21.6c11.1-5.7,22.9-7.9,35.2-7.9
				c3.4,0,6.4,1,9.1,3.1c13.7,10.7,28.8,12.9,44.9,6.8c7.4-2.8,14.3-6.8,21.5-10.1c8.8-4.1,16.1-10.2,23.2-16.8
				c8.1-7.6,16.3-15,24.8-22.2c10.8-9.2,23.1-16.1,36-22c5.6-2.6,11.4-4.5,17.6-5c8.8-0.8,16.6,1.9,23.6,7
				C415.8,100,422.7,108.1,430.2,117z"/>
		</g>
		<g>
			<path d="M369.1,57.3c-16.4,0-31.5,3.9-45.6,11.6c-8.4,4.5-16.1,9.9-23.3,16.1c-6.9,6-13.7,12.2-20.3,18.5
				c-14.5,13.7-31.1,24-50,30.4c-5.1,1.7-10.4,2.8-15.7,3.4c-6.9,0.8-13.3-1.2-19.2-5c-6.7-4.4-18.1-16.2-22.9-23.9
				c3-0.2,5.7-0.4,8.5-0.6c17.8-1.2,33.8-7.6,48.5-17.6c10.2-6.9,19.5-15,28.3-23.6c11.6-11.2,24.2-21.1,38.7-28.4
				c8.3-4.2,16.7-8.1,26-9.7c7-1.2,13.8-0.5,20.2,2.7C353.8,37.1,361.5,47.1,369.1,57.3z"/>
		</g>
	</g>
</g>
<g id="Livello_2">
</g>
</svg>
